<svg width="95" height="28" viewBox="0 0 95 28" fill="none" xmlns="http://www.w3.org/2000/svg">
<path d="M89.4906 14.56C86.6306 14.56 84.6906 13.24 83.8906 11.1L86.6506 9.5C87.2106 10.8 88.1906 11.44 89.5906 11.44C90.8506 11.44 91.4906 11.06 91.4906 10.3C91.4906 9.88 91.2906 9.56 90.8706 9.34C90.4706 9.1 89.7106 8.82 88.5906 8.52C87.4106 8.2 86.6106 7.84 85.7506 7.2C84.9306 6.54 84.4706 5.54 84.4706 4.26C84.4706 2.96 84.9306 1.94 85.8506 1.16C86.7906 0.38 87.8906 0 89.1706 0C91.4706 0 93.2706 1.1 94.2906 3.16L91.5906 4.74C91.0906 3.68 90.3906 3.12 89.1706 3.12C88.2106 3.12 87.6706 3.6 87.6706 4.18C87.6706 4.52 87.8306 4.82 88.1506 5.08C88.4906 5.34 89.1706 5.62 90.1906 5.92L91.4906 6.34C91.7906 6.44 92.1906 6.62 92.6506 6.88C93.1306 7.12 93.4906 7.38 93.7306 7.66C94.2306 8.2 94.6906 9.12 94.6906 10.26C94.6906 11.6 94.2106 12.64 93.2506 13.42C92.2906 14.18 91.0306 14.56 89.4906 14.56Z" fill="#111111"/>
<path d="M81.473 7.02027C82.613 7.76027 83.193 8.80027 83.193 10.1803C83.193 11.4003 82.753 12.3803 81.893 13.1403C81.033 13.9003 79.953 14.2803 78.673 14.2803H72.793V0.280273H78.273C79.533 0.280273 80.573 0.660273 81.413 1.40027C82.273 2.14027 82.693 3.10027 82.693 4.28027C82.693 5.40027 82.293 6.32027 81.473 7.02027ZM78.273 3.28027H75.993V5.76027H78.273C78.993 5.76027 79.493 5.24027 79.493 4.52027C79.493 3.80027 78.993 3.28027 78.273 3.28027ZM75.993 11.2803H78.673C79.473 11.2803 79.993 10.7403 79.993 9.94027C79.993 9.14027 79.473 8.60027 78.673 8.60027H75.993V11.2803Z" fill="#111111"/>
<path d="M71.6 14.2803H68.1L67.4 12.0803H62.2L61.5 14.2803H58L62.76 0.280273H66.84L71.6 14.2803ZM64.8 3.94027L63.16 9.08027H66.44L64.8 3.94027Z" fill="#111111"/>
<path d="M52.3992 0.280273V11.2003H57.3992V14.2803H49.1992V0.280273H52.3992Z" fill="#111111"/>
<path d="M43.0062 14.2803H39.5062L38.8063 12.0803H33.6063L32.9062 14.2803H29.4062L34.1662 0.280273H38.2463L43.0062 14.2803ZM36.2062 3.94027L34.5662 9.08027H37.8462L36.2062 3.94027Z" fill="#FA4032"/>
<path d="M23.0047 8.72027V11.2003H28.6047V14.2803H19.8047V0.280273H28.5047V3.36027H23.0047V5.68027H28.0047V8.72027H23.0047Z" fill="#FA4032"/>
<path d="M5.60547 0.280273H11.2055C13.1455 0.280273 14.7455 0.960274 16.0455 2.30027C17.3455 3.64027 18.0055 5.30027 18.0055 7.28027C18.0055 9.26027 17.3455 10.9403 16.0455 12.2803C14.7455 13.6203 13.1455 14.2803 11.2055 14.2803H5.60547V0.280273ZM8.80547 11.2003H11.2055C12.3055 11.2003 13.2055 10.8403 13.8855 10.1403C14.5855 9.42027 14.9255 8.46027 14.9255 7.28027C14.9255 6.10027 14.5855 5.14027 13.8855 4.44027C13.2055 3.72027 12.3055 3.36027 11.2055 3.36027H8.80547V11.2003Z" fill="#FA4032"/>
<path d="M0 14.2803V0.280273H3.2V14.2803H0Z" fill="#FA4032"/>
<path d="M90.0504 24.0895L93.2404 27.6895H92.1004L89.0804 24.3295V27.6895H88.1504V20.6895H89.0804V23.8495L92.0004 20.6895H93.1404L90.0504 24.0895Z" fill="#111111"/>
<path d="M66.4163 27.6895H65.3863L63.8163 25.0095H62.1663V27.6895H61.2363V20.6895H64.0363C64.6363 20.6895 65.1463 20.8995 65.5763 21.3295C66.0063 21.7495 66.2163 22.2595 66.2163 22.8595C66.2163 23.3095 66.0763 23.7295 65.8063 24.0995C65.5363 24.4695 65.1963 24.7395 64.7663 24.8895L66.4163 27.6895ZM64.0363 21.5595H62.1663V24.1695H64.0363C64.3863 24.1695 64.6763 24.0395 64.9163 23.7895C65.1663 23.5295 65.2863 23.2195 65.2863 22.8595C65.2863 22.4995 65.1663 22.1895 64.9163 21.9395C64.6763 21.6895 64.3863 21.5595 64.0363 21.5595Z" fill="#111111"/>
<path d="M32.0684 24.1896C32.0684 23.1796 32.4184 22.3196 33.1184 21.6196C33.8184 20.9096 34.6784 20.5596 35.6884 20.5596C36.6984 20.5596 37.5584 20.9096 38.2584 21.6196C38.9684 22.3196 39.3184 23.1796 39.3184 24.1896C39.3184 25.1996 38.9684 26.0496 38.2584 26.7596C37.5584 27.4696 36.6984 27.8196 35.6884 27.8196C34.6784 27.8196 33.8184 27.4696 33.1184 26.7596C32.4184 26.0496 32.0684 25.1996 32.0684 24.1896ZM38.3884 24.1896C38.3884 23.4196 38.1284 22.7696 37.6084 22.2496C37.0984 21.7196 36.4584 21.4596 35.6884 21.4596C34.9184 21.4596 34.2784 21.7196 33.7584 22.2496C33.2484 22.7696 32.9884 23.4196 32.9884 24.1896C32.9884 24.9596 33.2484 25.5996 33.7584 26.1296C34.2784 26.6496 34.9184 26.9096 35.6884 26.9096C36.4584 26.9096 37.0984 26.6496 37.6084 26.1296C38.1284 25.5996 38.3884 24.9596 38.3884 24.1896Z" fill="#111111"/>
<path d="M4.54117 27.6895H3.46117L1.45117 20.6895H2.43117L4.03117 26.4495L5.73117 20.6895H6.67117L8.37117 26.4495L9.97117 20.6895H10.9512L8.94117 27.6895H7.86117L6.20117 22.0995L4.54117 27.6895Z" fill="#111111"/>
</svg>
